<?xml version="1.0" encoding="UTF-8"?>
<svg version="1.1" xmlns="http://www.w3.org/2000/svg" width="500" height="500">
<path d="M0 0 C165 0 330 0 500 0 C500 165 500 330 500 500 C335 500 170 500 0 500 C0 335 0 170 0 0 Z " fill="#FEFEFE" transform="translate(0,0)"/>
<path d="M0 0 C4.75813098 2.24770604 9.495308 5.27064368 12 10 C12.3574579 13.09319731 12.28220515 16.14172841 12.1875 19.25 C12.16719727 20.51070312 12.16719727 20.51070312 12.14648438 21.796875 C12.11123464 23.86485938 12.0574302 25.93251271 12 28 C8.7 28.33 5.4 28.66 2 29 C2 27.68 2 26.36 2 25 C-0.97 25.495 -0.97 25.495 -4 26 C-4.495 20.555 -4.495 20.555 -5 15 C-5.33 21.93 -5.66 28.86 -6 36 C-3.69 36.66 -1.38 37.32 1 38 C3.6171875 39.65625 3.6171875 39.65625 5.875 41.5 C6.63554687 42.1084375 7.39609375 42.716875 8.1796875 43.34375 C10.56785035 45.5166707 10.96801915 46.46369084 11.16113281 49.70214844 C11.20652027 53.384866 11.23529751 57.06702569 11.25 60.75 C11.270625 62.02617187 11.29125 63.30234375 11.3125 64.6171875 C11.32023437 66.46957031 11.32023437 66.46957031 11.328125 68.359375 C11.3374707 69.48827148 11.34681641 70.61716797 11.35644531 71.78027344 C10.87981416 76.08562391 9.43433875 79.46346918 6.46484375 82.64453125 C2.12819747 85.96079017 -0.00397233 87.16340992 -5.4375 87.25 C-6.40558594 87.27578125 -7.37367188 87.3015625 -8.37109375 87.328125 C-11.4268502 86.94672301 -12.06388123 86.28553665 -14 84 C-16.59915538 82.80972016 -16.59915538 82.80972016 -19 82 C-19.33 84.31 -19.66 86.62 -20 89 C-24.08418609 90.80994759 -28.19653307 91.78357471 -32.5625 92.625 C-33.5515332 92.82609375 -33.5515332 92.82609375 -34.56054688 93.03125 C-37.80348637 93.67006019 -40.67611493 94 -44 94 C-44 92.35 -44 90.7 -44 89 C-46.97 89.495 -46.97 89.495 -50 90 C-50.02335576 81.65373301 -50.04103185 73.30748009 -50.05181217 64.96118832 C-50.05699085 61.08405831 -50.06399523 57.20695096 -50.07543945 53.32983398 C-50.08644929 49.57561082 -50.09231439 45.82140919 -50.09487724 42.0671711 C-50.09669938 40.64773788 -50.1002558 39.22830559 -50.10573006 37.80888176 C-50.14139918 28.16055119 -49.76060731 18.61612251 -49 9 C-32.58544304 4.85126582 -32.58544304 4.85126582 -25 5 C-25 6.32 -25 7.64 -25 9 C-19.94493886 7.70684482 -17.55551453 5.74264687 -14 2 C-9.51276832 -0.72067942 -5.1031964 -0.86545436 0 0 Z " fill="#B5A3FC" transform="translate(325,205)"/>
<path d="M0 0 C0 1.32 0 2.64 0 4 C1.98 3.67 3.96 3.34 6 3 C11.44831303 66.96035614 11.44831303 66.96035614 11 83 C6.545 83.495 6.545 83.495 2 84 C2 82.68 2 81.36 2 80 C-0.97 80.495 -0.97 80.495 -4 81 C-4.33 74.73 -4.66 68.46 -5 62 C-5.66 62 -6.32 62 -7 62 C-7.33 70.25 -7.66 78.5 -8 87 C-12.455 87.495 -12.455 87.495 -17 88 C-17 86.68 -17 85.36 -17 84 C-17.969375 84.185625 -18.93875 84.37125 -19.9375 84.5625 C-21.4534375 84.7790625 -21.4534375 84.7790625 -23 85 C-23.33 84.67 -23.66 84.34 -24 84 C-24.680625 85.093125 -25.36125 86.18625 -26.0625 87.3125 C-29.29236999 91.7818439 -32.68350253 93.3391709 -38.09765625 94.41796875 C-44.40831273 95.00785375 -48.09222981 92.43082764 -53.03125 88.7265625 C-55 87 -55 87 -56 85 C-56.11220813 82.9081007 -56.15934177 80.81260553 -56.17700195 78.71777344 C-56.18357315 78.07362991 -56.19014435 77.42948639 -56.19691467 76.76582336 C-56.21665227 74.6303394 -56.22831263 72.49492586 -56.23828125 70.359375 C-56.24235678 69.62951637 -56.2464323 68.89965775 -56.25063133 68.14768219 C-56.27149639 64.28286522 -56.28579485 60.41808378 -56.29516602 56.55322266 C-56.30621737 52.56733231 -56.34060053 48.58200226 -56.38033772 44.59630966 C-56.40652856 41.52672309 -56.41486011 38.45726934 -56.41844749 35.38758087 C-56.42330898 33.91880774 -56.43491062 32.45004037 -56.45348549 30.98137665 C-56.47792628 28.92040649 -56.4769039 26.86087645 -56.4699707 24.79980469 C-56.47583694 23.62891296 -56.48170319 22.45802124 -56.48774719 21.25164795 C-55.65673041 15.71153605 -52.20439462 11.56736513 -48 8 C-43.9169633 5.79295314 -40.59015555 5.3336871 -36 6 C-30.93971335 8.61763099 -26.19313938 11.21029092 -23 16 C-22.77294922 18.36010742 -22.77294922 18.36010742 -22.8046875 21.10546875 C-22.81113281 22.08837891 -22.81757813 23.07128906 -22.82421875 24.08398438 C-22.84097656 25.10814453 -22.85773438 26.13230469 -22.875 27.1875 C-22.88402344 28.22326172 -22.89304688 29.25902344 -22.90234375 30.32617188 C-22.9259214 32.88434685 -22.9588297 35.44205748 -23 38 C-25.97 38.66 -28.94 39.32 -32 40 C-32 38.35 -32 36.7 -32 35 C-34.97 35.495 -34.97 35.495 -38 36 C-38.33 31.05 -38.66 26.1 -39 21 C-40.65079442 22.65079442 -40.22549447 24.63736179 -40.31640625 26.91015625 C-40.35830078 27.89951172 -40.40019531 28.88886719 -40.44335938 29.90820312 C-40.48267578 30.94912109 -40.52199219 31.99003906 -40.5625 33.0625 C-40.60568359 34.10728516 -40.64886719 35.15207031 -40.69335938 36.22851562 C-40.79981225 38.81886884 -40.9018276 41.40932186 -41 44 C-39.046875 43.47916667 -37.09375 42.95833333 -35.140625 42.4375 C-33 42 -33 42 -29 42 C-29 43.32 -29 44.64 -29 46 C-27.02 46 -25.04 46 -23 46 C-22.505 52.93 -22.505 52.93 -22 60 C-20.35 41.19 -18.7 22.38 -17 3 C-5.90909091 -0.16883117 -5.90909091 -0.16883117 0 0 Z " fill="#B4A1FC" transform="translate(191,232)"/>
<path d="M0 0 C0.99 0.66 1.98 1.32 3 2 C3 2.66 3 3.32 3 4 C4.175625 4.1546875 4.175625 4.1546875 5.375 4.3125 C8 5 8 5 10 8 C10.26742554 9.91487122 10.26742554 9.91487122 10.29052734 12.10083008 C10.30328705 12.92210892 10.31604675 13.74338776 10.32919312 14.58955383 C10.33141876 15.47394638 10.33364441 16.35833893 10.3359375 17.26953125 C10.3425943 18.18329025 10.3492511 19.09704926 10.35610962 20.03849792 C10.36623643 21.97266629 10.37092663 23.9068696 10.37060547 25.84106445 C10.37496838 28.79111881 10.41125874 31.73966454 10.44921875 34.68945312 C10.45508906 36.5703074 10.45905702 38.45116876 10.4609375 40.33203125 C10.47530853 41.2103511 10.48967957 42.08867096 10.50448608 42.99360657 C10.46276519 48.62623411 9.59820562 51.6268031 6 56 C7.485 56.495 7.485 56.495 9 57 C10.59412284 60.18824568 10.10174735 63.62896662 10.0625 67.125 C10.05798828 67.87910156 10.05347656 68.63320313 10.04882812 69.41015625 C10.03703499 71.27347127 10.01909942 73.13674555 10 75 C10.66 75 11.32 75 12 75 C12 77.64 12 80.28 12 83 C7.545 83.495 7.545 83.495 3 84 C2.34 82.68 1.68 81.36 1 80 C-1.51948778 79.26259783 -1.51948778 79.26259783 -4 79 C-5 78 -5 78 -5.09765625 74.18359375 C-5.09098089 72.60153318 -5.07901875 71.01948841 -5.0625 69.4375 C-5.05798828 68.63119141 -5.05347656 67.82488281 -5.04882812 66.99414062 C-5.03700518 64.99606244 -5.01906914 62.99802217 -5 61 C-5.99 61.495 -5.99 61.495 -7 62 C-7.33 70.25 -7.66 78.5 -8 87 C-12.455 87.495 -12.455 87.495 -17 88 C-17 86.35 -17 84.7 -17 83 C-19.97 83.495 -19.97 83.495 -23 84 C-23 57.27 -23 30.54 -23 3 C-6.50988142 -0.53359684 -6.50988142 -0.53359684 0 0 Z " fill="#B7A4FC" transform="translate(262,218)"/>
<path d="M0 0 C0 1.65 0 3.3 0 5 C1.98 4.67 3.96 4.34 6 4 C6 30.73 6 57.46 6 85 C1.05 85.99 1.05 85.99 -4 87 C-4 85.35 -4 83.7 -4 82 C-5.65 82 -7.3 82 -9 82 C-9 72.1 -9 62.2 -9 52 C-9.99 52 -10.98 52 -12 52 C-12 64.21 -12 76.42 -12 89 C-16.455 89.495 -16.455 89.495 -21 90 C-21 88.35 -21 86.7 -21 85 C-23.97 85.495 -23.97 85.495 -27 86 C-27 59.27 -27 32.54 -27 5 C-23.7 4.67 -20.4 4.34 -17 4 C-17 5.32 -17 6.64 -17 8 C-15.02 8 -13.04 8 -11 8 C-11 18.23 -11 28.46 -11 39 C-10.34 39 -9.68 39 -9 39 C-9.00785522 37.32659546 -9.00785522 37.32659546 -9.01586914 35.61938477 C-9.03391775 31.49520667 -9.04543149 27.37103209 -9.05493164 23.24682617 C-9.05997218 21.45905979 -9.06680454 19.67129755 -9.07543945 17.88354492 C-9.0875173 15.31948832 -9.09323094 12.75548603 -9.09765625 10.19140625 C-9.10281754 9.3872377 -9.10797882 8.58306915 -9.11329651 7.75453186 C-9.11349215 5.83598285 -9.06201983 3.91754632 -9 2 C-6.98634914 -0.01365086 -2.76905449 0 0 0 Z " fill="#B49FFD" transform="translate(366,196)"/>
<path d="M0 0 C0.33 1.32 0.66 2.64 1 4 C2.65 4 4.3 4 6 4 C6.06959428 13.28397193 6.12285903 22.56785367 6.15543652 31.8520298 C6.17107424 36.16332863 6.19227776 40.47444862 6.22631836 44.78564453 C6.25897959 48.94832485 6.27686726 53.11083345 6.28463173 57.27363205 C6.29016312 58.85961992 6.30096466 60.44559869 6.31719017 62.03151321 C6.33905491 64.25770427 6.34196323 66.48319103 6.34057617 68.70947266 C6.34723801 69.97522125 6.35389984 71.24096985 6.36076355 72.54507446 C5.89819698 76.97493735 4.5147363 80.33931255 1.5 83.64453125 C-3.45405189 87.50198311 -7.12719686 88.46314372 -13.2890625 88.41796875 C-17.97319412 87.69577555 -21.58391781 85.2099393 -25 82 C-27.4007687 78.37568252 -27.24177643 75.11516446 -27.22705078 70.84472656 C-27.22734283 70.13213181 -27.22763489 69.41953705 -27.22793579 68.68534851 C-27.22654577 66.33698219 -27.21100022 63.98893569 -27.1953125 61.640625 C-27.1915812 60.00966566 -27.18873478 58.37870408 -27.18673706 56.7477417 C-27.1791098 52.46020289 -27.15946912 48.1728001 -27.1373291 43.88531494 C-27.11685112 39.50819743 -27.10773117 35.13105788 -27.09765625 30.75390625 C-27.07622235 22.16920849 -27.04209739 13.58462118 -27 5 C-20.375 3 -20.375 3 -17 3 C-17 4.65 -17 6.3 -17 8 C-15.02 7.67 -13.04 7.34 -11 7 C-11 29.11 -11 51.22 -11 74 C-9.54449197 71.08898394 -9.8348901 68.50682802 -9.79467773 65.25537109 C-9.77982834 64.21617775 -9.77982834 64.21617775 -9.76467896 63.1559906 C-9.73304503 60.86184122 -9.70829914 58.56767111 -9.68359375 56.2734375 C-9.66302585 54.68445288 -9.64202942 53.09547376 -9.62062073 51.50650024 C-9.56538309 47.32096805 -9.51598131 43.13538634 -9.46777344 38.94976807 C-9.41757074 34.6800088 -9.36187826 30.41032158 -9.30664062 26.140625 C-9.19903837 17.76047755 -9.09759801 9.3802699 -9 1 C-5.90226756 0.15937603 -3.21667249 -0.08935201 0 0 Z " fill="#B4A1FC" transform="translate(230,224)"/>
<path d="M0 0 C7.63819773 4.73268722 7.63819773 4.73268722 10.17578125 8.5390625 C10.40283203 10.89916992 10.40283203 10.89916992 10.37109375 13.64453125 C10.36464844 14.62744141 10.35820312 15.61035156 10.3515625 16.62304688 C10.33480469 17.64720703 10.31804687 18.67136719 10.30078125 19.7265625 C10.29175781 20.76232422 10.28273437 21.79808594 10.2734375 22.86523438 C10.24985985 25.42340935 10.21695155 27.98111998 10.17578125 30.5390625 C7.20578125 31.1990625 4.23578125 31.8590625 1.17578125 32.5390625 C1.17578125 30.8890625 1.17578125 29.2390625 1.17578125 27.5390625 C-0.80421875 27.8690625 -2.78421875 28.1990625 -4.82421875 28.5390625 C-5.15421875 23.5890625 -5.48421875 18.6390625 -5.82421875 13.5390625 C-7.47501317 15.18985692 -7.04971322 17.17642429 -7.140625 19.44921875 C-7.18251953 20.43857422 -7.22441406 21.42792969 -7.26757812 22.44726562 C-7.30689453 23.48818359 -7.34621094 24.52910156 -7.38671875 25.6015625 C-7.42990234 26.64634766 -7.47308594 27.69113281 -7.51757812 28.76757812 C-7.624031 31.35793134 -7.72604635 33.94838436 -7.82421875 36.5390625 C-5.87109375 36.01822917 -3.91796875 35.49739583 -1.96484375 34.9765625 C0.17578125 34.5390625 0.17578125 34.5390625 4.17578125 34.5390625 C4.17578125 35.8590625 4.17578125 37.1790625 4.17578125 38.5390625 C4.83578125 38.8690625 5.49578125 39.1990625 6.17578125 39.5390625 C5.51578125 39.5390625 4.85578125 39.5390625 4.17578125 39.5390625 C4.1914917 40.38090088 4.20720215 41.22273926 4.22338867 42.09008789 C4.27480376 45.24159432 4.31227005 48.39288549 4.34057617 51.54467773 C4.35557534 52.90347367 4.37598163 54.26222191 4.40209961 55.62084961 C4.69705461 71.36913352 4.69705461 71.36913352 -1.19921875 78.3515625 C-5.83252032 82.21264714 -9.68672102 82.7780371 -15.54296875 83.09765625 C-19.06964827 82.23410287 -20.5326247 80.29162757 -22.82421875 77.5390625 C-23.45240784 74.43458557 -23.45240784 74.43458557 -23.45532227 70.91625977 C-23.46247757 70.27167816 -23.46963287 69.62709656 -23.477005 68.96298218 C-23.49384303 66.84307853 -23.47452074 64.72530506 -23.453125 62.60546875 C-23.45395428 61.12483038 -23.45641587 59.64419211 -23.46043396 58.16355896 C-23.46328869 55.06407883 -23.44862587 51.96532262 -23.42114258 48.8659668 C-23.38708893 44.90354484 -23.39307046 40.94241933 -23.41180515 36.97993565 C-23.42240254 33.9231242 -23.41341226 30.86661151 -23.39842033 27.8098278 C-23.39325605 26.34947536 -23.39369896 24.88909149 -23.39996529 23.42874336 C-23.40545005 21.38223977 -23.38494295 19.33755566 -23.35766602 17.29125977 C-23.35146744 16.12941666 -23.34526886 14.96757355 -23.33888245 13.77052307 C-22.46001084 8.25228082 -19.02109999 4.10005264 -14.82421875 0.5390625 C-9.75704798 -2.19994873 -5.21053455 -2.69535259 0 0 Z " fill="#B4A0FD" transform="translate(157.82421875,239.4609375)"/>
<path d="M0 0 C3.77475683 2.42838591 7.32971929 4.76880517 9.4609375 8.79296875 C9.8183954 11.88616606 9.74314265 14.93469716 9.6484375 18.04296875 C9.62813477 19.30367187 9.62813477 19.30367187 9.60742188 20.58984375 C9.57217214 22.65782813 9.5183677 24.72548146 9.4609375 26.79296875 C4.5109375 27.28796875 4.5109375 27.28796875 -0.5390625 27.79296875 C-0.5390625 26.47296875 -0.5390625 25.15296875 -0.5390625 23.79296875 C-2.5190625 24.12296875 -4.4990625 24.45296875 -6.5390625 24.79296875 C-6.8690625 21.16296875 -7.1990625 17.53296875 -7.5390625 13.79296875 C-7.8690625 20.72296875 -8.1990625 27.65296875 -8.5390625 34.79296875 C-6.2290625 35.45296875 -3.9190625 36.11296875 -1.5390625 36.79296875 C1.078125 38.44921875 1.078125 38.44921875 3.3359375 40.29296875 C4.47675781 41.205625 4.47675781 41.205625 5.640625 42.13671875 C8.02878785 44.30963945 8.42895665 45.25665959 8.62207031 48.49511719 C8.66745777 52.17783475 8.69623501 55.85999444 8.7109375 59.54296875 C8.7315625 60.81914062 8.7521875 62.0953125 8.7734375 63.41015625 C8.78117187 65.26253906 8.78117187 65.26253906 8.7890625 67.15234375 C8.7984082 68.28124023 8.80775391 69.41013672 8.81738281 70.57324219 C8.34075166 74.87859266 6.89527625 78.25643793 3.92578125 81.4375 C-0.41086503 84.75375892 -2.54303483 85.95637867 -7.9765625 86.04296875 C-8.94464844 86.06875 -9.91273438 86.09453125 -10.91015625 86.12109375 C-13.97599393 85.73843347 -14.58878401 85.07774268 -16.5390625 82.79296875 C-17.5496875 82.31859375 -18.5603125 81.84421875 -19.6015625 81.35546875 C-22.82710686 79.63975367 -23.30532122 79.08924628 -24.5390625 75.79296875 C-24.76611328 73.41113281 -24.76611328 73.41113281 -24.734375 70.80859375 C-24.72792969 69.87402344 -24.72148437 68.93945312 -24.71484375 67.9765625 C-24.69808594 67.00847656 -24.68132812 66.04039062 -24.6640625 65.04296875 C-24.65503906 64.05941406 -24.64601563 63.07585937 -24.63671875 62.0625 C-24.61319175 59.63921849 -24.57732187 57.21606244 -24.5390625 54.79296875 C-19.5890625 54.29796875 -19.5890625 54.29796875 -14.5390625 53.79296875 C-14.5390625 55.11296875 -14.5390625 56.43296875 -14.5390625 57.79296875 C-12.8890625 57.79296875 -11.2390625 57.79296875 -9.5390625 57.79296875 C-9.2090625 62.41296875 -8.8790625 67.03296875 -8.5390625 71.79296875 C-7.27725155 70.75504103 -7.27725155 70.75504103 -7.42553711 68.47631836 C-7.43339233 66.97597046 -7.43339233 66.97597046 -7.44140625 65.4453125 C-7.44624023 63.82592773 -7.44624023 63.82592773 -7.45117188 62.17382812 C-7.45955078 61.03751953 -7.46792969 59.90121094 -7.4765625 58.73046875 C-7.48107422 57.59029297 -7.48558594 56.45011719 -7.49023438 55.27539062 C-7.50206503 52.44786524 -7.5185484 49.62044235 -7.5390625 46.79296875 C-8.52648437 46.25027344 -9.51390625 45.70757812 -10.53125 45.1484375 C-11.82572965 44.42615537 -13.11998908 43.70347846 -14.4140625 42.98046875 C-15.06503906 42.62404297 -15.71601563 42.26761719 -16.38671875 41.90039062 C-19.60504153 40.09215772 -21.4587408 38.9134513 -23.5390625 35.79296875 C-24.03696371 31.39239484 -23.95570859 26.96863277 -23.9765625 22.54296875 C-24.00943359 21.32738281 -24.04230469 20.11179688 -24.07617188 18.859375 C-24.1205818 11.45502899 -23.73149757 7.22351845 -18.5390625 1.79296875 C-13.04053605 -2.1710852 -6.15504734 -2.92601481 0 0 Z " fill="#B4A1FC" transform="translate(327.5390625,206.20703125)"/>
<path d="M0 0 C0.99 0 1.98 0 3 0 C2.47731534 2.76276177 1.89130413 5.3260876 1 8 C2.32 8 3.64 8 5 8 C5 8.66 5 9.32 5 10 C3.35 10.33 1.7 10.66 0 11 C-0.66 15.62 -1.32 20.24 -2 25 C2.18784715 22.90607642 2.73344901 22.29607137 4.75 18.375 C5.17796875 17.55773437 5.6059375 16.74046875 6.046875 15.8984375 C6.51867187 14.95871094 6.51867187 14.95871094 7 14 C7.66 14 8.32 14 9 14 C8.42017397 18.78356477 6.56809656 21.99679066 4 26 C1 28 1 28 -1.6875 27.625 C-2.450625 27.41875 -3.21375 27.2125 -4 27 C-4 26.34 -4 25.68 -4 25 C-4.66 25 -5.32 25 -6 25 C-6.2475 25.61875 -6.495 26.2375 -6.75 26.875 C-8.25822744 29.43898664 -9.17636058 30.11257047 -12 31 C-14.5 30.625 -14.5 30.625 -17 30 C-20.87961606 29.58353663 -20.87961606 29.58353663 -22.875 31.5 C-25.70376554 33.49677568 -27.60413285 33.21675748 -31 33 C-32.87511574 33 -34.75041553 33.01786704 -36.625 33.0625 C-39 33 -39 33 -40 32 C-40.07205511 30.31391034 -40.08386068 28.62499341 -40.0625 26.9375 C-40.05347656 26.01839844 -40.04445312 25.09929687 -40.03515625 24.15234375 C-40.02355469 23.44207031 -40.01195312 22.73179687 -40 22 C-44.13767263 26.43322068 -45.95528874 31.39879629 -48 37 C-51.375 37.125 -51.375 37.125 -55 37 C-55.66 36.34 -56.32 35.68 -57 35 C-56.62916167 31.5882874 -55.89141824 28.31098205 -55 25 C-60.0461211 29.20510092 -61.86819397 33.86659159 -64 40 C-64.66 40 -65.32 40 -66 40 C-66.33 39.01 -66.66 38.02 -67 37 C-67.804375 37.804375 -68.60875 38.60875 -69.4375 39.4375 C-73 43 -73 43 -75.9375 43.1875 C-79 43 -79 43 -81 41 C-81.70125 41.763125 -82.4025 42.52625 -83.125 43.3125 C-86.89228047 46.83408827 -90.01518416 48.68242946 -95.125 49.5 C-98 49 -98 49 -100.14453125 46.88671875 C-103.50639548 41.65636577 -102.74490874 35.99194136 -102 30 C-99.98327079 23.31623814 -96.18883935 17.47611021 -90 14 C-86.6875 13.4375 -86.6875 13.4375 -84 14 C-81.82759394 17.25860909 -81.76435842 17.82050803 -82.1875 21.5 C-82.26355469 22.2734375 -82.33960938 23.046875 -82.41796875 23.84375 C-83.10841228 26.40163474 -83.88528028 27.4253161 -86 29 C-86.99 29 -87.98 29 -89 29 C-88.71125 28.505 -88.4225 28.01 -88.125 27.5 C-86.58711584 24.08247965 -85.85152195 20.6493798 -85 17 C-89.99035105 18.24758776 -92.209581 19.67003948 -95 24 C-98.520835 30.16146125 -98.55313189 35.99011699 -98 43 C-97.67 43.66 -97.34 44.32 -97 45 C-90.65185624 44.57769894 -90.65185624 44.57769894 -85 42 C-83.94446543 40.04746965 -83.02493654 38.05477326 -82.10546875 36.03515625 C-80.03246504 31.58040361 -77.96804433 28.07523436 -74 25 C-71.875 24.75 -71.875 24.75 -70 26 C-68.25 29.5625 -68.25 29.5625 -67 33 C-65.68 29.7 -64.36 26.4 -63 23 C-62.34 23 -61.68 23 -61 23 C-60.505 23.99 -60.505 23.99 -60 25 C-59.38125 24.2265625 -59.38125 24.2265625 -58.75 23.4375 C-58.1725 22.963125 -57.595 22.48875 -57 22 C-54.8125 22.3125 -54.8125 22.3125 -53 23 C-51.73735399 27.29299643 -52.37049588 29.87831311 -54 34 C-49.86782946 30.83200259 -49.30521096 27.83689772 -48.58984375 22.92578125 C-48.29787109 21.97251953 -48.29787109 21.97251953 -48 21 C-47.01 20.67 -46.02 20.34 -45 20 C-45 20.66 -45 21.32 -45 22 C-44.443125 21.484375 -43.88625 20.96875 -43.3125 20.4375 C-41 19 -41 19 -38.25 19.3125 C-37.5075 19.539375 -36.765 19.76625 -36 20 C-36 23.3 -36 26.6 -36 30 C-35.60167969 29.24074219 -35.20335937 28.48148438 -34.79296875 27.69921875 C-34.26316406 26.70535156 -33.73335938 25.71148437 -33.1875 24.6875 C-32.66542969 23.70136719 -32.14335937 22.71523437 -31.60546875 21.69921875 C-30.21548688 19.3622906 -29.12337628 17.67159409 -27 16 C-24.3125 15.8125 -24.3125 15.8125 -22 16 C-22.24257285 22.18560757 -22.24257285 22.18560757 -24.40234375 24.5078125 C-25.91550151 25.69697648 -27.45645613 26.85055244 -29 28 C-29 28.66 -29 29.32 -29 30 C-26.09684023 29.51306769 -26.09684023 29.51306769 -23 28 C-21.05102854 25.0442988 -19.57101854 22.1581731 -18.078125 18.96679688 C-17.125 17.08984375 -17.125 17.08984375 -15 14 C-11.8125 13.00390625 -11.8125 13.00390625 -9 13 C-8 14 -8 14 -7.9375 16.5625 C-7.958125 17.366875 -7.97875 18.17125 -8 19 C-9.485 19.495 -9.485 19.495 -11 20 C-10.67 18.35 -10.34 16.7 -10 15 C-14.09709868 18.81360102 -14.09709868 18.81360102 -15.0625 24.125 C-15.041875 25.07375 -15.02125 26.0225 -15 27 C-12.65851769 27.12213894 -12.65851769 27.12213894 -10 26 C-6.53930711 21.88059568 -4.42103429 17.16739743 -3 12 C-3.99 11.67 -4.98 11.34 -6 11 C-5.67 10.34 -5.34 9.68 -5 9 C-4.01 9 -3.02 9 -2 9 C-1.34 6.03 -0.68 3.06 0 0 Z " fill="#135561" transform="translate(290,170)"/>
<path d="M0 0 C0.02505615 0.59014893 0.0501123 1.18029785 0.07592773 1.78833008 C0.19200052 4.46326814 0.31467572 7.1378638 0.4375 9.8125 C0.47681641 10.74126953 0.51613281 11.67003906 0.55664062 12.62695312 C0.61948242 13.9659668 0.61948242 13.9659668 0.68359375 15.33203125 C0.72025146 16.15421143 0.75690918 16.9763916 0.79467773 17.82348633 C0.93427772 20.17905178 0.93427772 20.17905178 2 23 C4.28810754 24.11141562 4.28810754 24.11141562 7 25 C10.81192493 26.55106638 14.01786425 28.12355496 17 31 C18.30500531 35.13363602 18.09027996 38.958427 17.8125 43.25 C17.79251953 44.35085938 17.77253906 45.45171875 17.75195312 46.5859375 C17.55545575 52.40225975 17.55545575 52.40225975 17 55 C16.01 55.66 15.02 56.32 14 57 C14 52.05 14 47.1 14 42 C12.35 42 10.7 42 9 42 C9 40.68 9 39.36 9 38 C4.05 38.495 4.05 38.495 -1 39 C-0.85912627 42.41693739 -0.71250529 45.8334617 -0.5625 49.25 C-0.52318359 50.21808594 -0.48386719 51.18617188 -0.44335938 52.18359375 C-0.38051758 53.58544922 -0.38051758 53.58544922 -0.31640625 55.015625 C-0.27974854 55.87446289 -0.24309082 56.73330078 -0.20532227 57.61816406 C-0.01296486 59.84960143 0.38846244 61.84982524 1 64 C-1.97 64.495 -1.97 64.495 -5 65 C-5 63.68 -5 62.36 -5 61 C-9.455 61.495 -9.455 61.495 -14 62 C-14 54.41 -14 46.82 -14 39 C-10.37 38.34 -6.74 37.68 -3 37 C-3 34.36 -3 31.72 -3 29 C-4.65 29 -6.3 29 -8 29 C-8 27.68 -8 26.36 -8 25 C-9.65 25 -11.3 25 -13 25 C-13 17.41 -13 9.82 -13 2 C-3 0 -3 0 0 0 Z " fill="#FBFDFD" transform="translate(304,222)"/>
<path d="M0 0 C1.2065625 0.0309375 1.2065625 0.0309375 2.4375 0.0625 C2.50709428 9.34647193 2.56035903 18.63035367 2.59293652 27.9145298 C2.60857424 32.22582863 2.62977776 36.53694862 2.66381836 40.84814453 C2.69647959 45.01082485 2.71436726 49.17333345 2.72213173 53.33613205 C2.72766312 54.92211992 2.73846466 56.50809869 2.75469017 58.09401321 C2.77655491 60.32020427 2.77946323 62.54569103 2.77807617 64.77197266 C2.78473801 66.03772125 2.79139984 67.30346985 2.79826355 68.60757446 C2.33569698 73.03743735 0.9522363 76.40181255 -2.0625 79.70703125 C-7.18966224 83.69927477 -10.83576124 84.39104776 -17.17578125 84.36328125 C-19.5625 84.0625 -19.5625 84.0625 -22.1875 82.0625 C-22.64125 81.4025 -23.095 80.7425 -23.5625 80.0625 C-22.83804688 79.97613281 -22.11359375 79.88976562 -21.3671875 79.80078125 C-14.91479209 78.86303312 -10.99388625 77.9483874 -6.5625 73.0625 C-4.56413668 69.09703521 -4.29818165 65.77165185 -4.25952148 61.36035156 C-4.25108215 60.70773849 -4.24264282 60.05512543 -4.23394775 59.38273621 C-4.20828989 57.23952459 -4.19606116 55.09645023 -4.18359375 52.953125 C-4.16741211 51.46049926 -4.15023141 49.96788404 -4.13209534 48.47528076 C-4.08650989 44.55650686 -4.05164406 40.63771885 -4.01989746 36.71881104 C-3.9679131 30.43205156 -3.90302372 24.14544575 -3.83168221 17.85887909 C-3.80879734 15.66018563 -3.79256498 13.46151203 -3.77696228 11.26275635 C-3.76356265 9.92419205 -3.74994847 8.58562988 -3.73608398 7.24707031 C-3.72657211 6.07412415 -3.71706024 4.90117798 -3.70726013 3.69268799 C-3.5149128 0.19787459 -3.49809399 0.08531937 0 0 Z " fill="#82E8BD" transform="translate(233.5625,227.9375)"/>
<path d="M0 0 C0 26.73 0 53.46 0 81 C-4.95 81.99 -4.95 81.99 -10 83 C-10 81.35 -10 79.7 -10 78 C-8.02 77.505 -8.02 77.505 -6 77 C-6 51.92 -6 26.84 -6 1 C-1 0 -1 0 0 0 Z " fill="#84EABD" transform="translate(372,200)"/>
<path d="M0 0 C1.875 0.3125 1.875 0.3125 4 1 C6.02906644 4.04359966 6.25432411 4.67517683 6.29052734 8.10083008 C6.3096669 9.33274834 6.3096669 9.33274834 6.32919312 10.58955383 C6.33253159 11.91614265 6.33253159 11.91614265 6.3359375 13.26953125 C6.3425943 14.18329025 6.3492511 15.09704926 6.35610962 16.03849792 C6.36623643 17.97266629 6.37092663 19.9068696 6.37060547 21.84106445 C6.37496838 24.79111881 6.41125874 27.73966454 6.44921875 30.68945312 C6.45508906 32.5703074 6.45905702 34.45116876 6.4609375 36.33203125 C6.47530853 37.2103511 6.48967957 38.08867096 6.50448608 38.99360657 C6.46276519 44.62623411 5.59820562 47.6268031 2 52 C2.99 52.33 3.98 52.66 5 53 C6.59412284 56.18824568 6.10174735 59.62896662 6.0625 63.125 C6.05798828 63.87910156 6.05347656 64.63320313 6.04882812 65.41015625 C6.03703499 67.27347127 6.01909942 69.13674555 6 71 C6.66 71 7.32 71 8 71 C8 73.64 8 76.28 8 79 C6.54364629 79.22174933 5.08477044 79.42698698 3.625 79.625 C2.81289063 79.74101562 2.00078125 79.85703125 1.1640625 79.9765625 C0.09285156 79.98816406 0.09285156 79.98816406 -1 80 C-1.66 79.34 -2.32 78.68 -3 78 C-3 77.01 -3 76.02 -3 75 C-1.35 75 0.3 75 2 75 C2 72.36 2 69.72 2 67 C1.34 67 0.68 67 0 67 C-0.03738281 65.87980469 -0.07476562 64.75960937 -0.11328125 63.60546875 C-0.17894257 62.1327791 -0.24538986 60.66012434 -0.3125 59.1875 C-0.33505859 58.44951172 -0.35761719 57.71152344 -0.38085938 56.95117188 C-0.55557955 52.66892961 -0.55557955 52.66892961 -2.54296875 48.98828125 C-3.02378906 48.66214844 -3.50460937 48.33601563 -4 48 C-2.125 43.125 -2.125 43.125 -1 42 C-0.83958807 38.89914779 -0.74036598 35.81812421 -0.68359375 32.71484375 C-0.6524221 31.31861534 -0.6524221 31.31861534 -0.62062073 29.8941803 C-0.55502069 26.90869818 -0.49619198 23.92312516 -0.4375 20.9375 C-0.3943247 18.91861024 -0.35071075 16.8997298 -0.30664062 14.88085938 C-0.19932871 9.92066703 -0.09809112 4.96038291 0 0 Z " fill="#84E8BE" transform="translate(266,222)"/>
<path d="M0 0 C5.44831303 63.96035614 5.44831303 63.96035614 5 80 C0.545 80.495 0.545 80.495 -4 81 C-4 79.68 -4 78.36 -4 77 C-3.01 76.505 -3.01 76.505 -2 76 C-1.76433662 62.86722166 -2.50622182 49.90391567 -3.5 36.8125 C-4.40272059 24.85397661 -5.27569535 13.00168243 -5 1 C-3 0 -3 0 0 0 Z " fill="#87E9BF" transform="translate(197,235)"/>
<path d="M0 0 C2.17240606 3.25860909 2.23564158 3.82050803 1.8125 7.5 C1.73644531 8.2734375 1.66039062 9.046875 1.58203125 9.84375 C0.89158772 12.40163474 0.11471972 13.4253161 -2 15 C-2.99 15 -3.98 15 -5 15 C-4.71125 14.505 -4.4225 14.01 -4.125 13.5 C-2.58711584 10.08247965 -1.85152195 6.6493798 -1 3 C-5.99035105 4.24758776 -8.209581 5.67003948 -11 10 C-14.520835 16.16146125 -14.55313189 21.99011699 -14 29 C-13.67 29.66 -13.34 30.32 -13 31 C-6.65185624 30.57769894 -6.65185624 30.57769894 -1 28 C0.05553457 26.04746965 0.97506346 24.05477326 1.89453125 22.03515625 C3.96753496 17.58040361 6.03195567 14.07523436 10 11 C12.1875 11 12.1875 11 14 12 C16.35863643 15.53795465 17.37127145 18.76750542 17 23 C14.625 25.9375 14.625 25.9375 12 28 C11.67 28.33 11.34 28.66 11 29 C8.0625 29.1875 8.0625 29.1875 5 29 C4.34 28.34 3.68 27.68 3 27 C2.29875 27.763125 1.5975 28.52625 0.875 29.3125 C-2.89228047 32.83408827 -6.01518416 34.68242946 -11.125 35.5 C-14 35 -14 35 -16.14453125 32.88671875 C-19.50639548 27.65636577 -18.74490874 21.99194136 -18 16 C-15.60326203 8.05682858 -9.55129217 -1.99910766 0 0 Z " fill="#27636E" transform="translate(206,184)"/>
<path d="M0 0 C0.625 2.375 0.625 2.375 1 5 C0.34 5.66 -0.32 6.32 -1 7 C-1.37051993 9.3245339 -1.37051993 9.3245339 -1.4140625 12.0078125 C-1.45273438 12.99394531 -1.49140625 13.98007812 -1.53125 14.99609375 C-1.5621875 16.02863281 -1.593125 17.06117188 -1.625 18.125 C-1.66367188 19.16527344 -1.70234375 20.20554687 -1.7421875 21.27734375 C-1.83664766 23.85138311 -1.92221214 26.42541155 -2 29 C-2.66 29 -3.32 29 -4 29 C-4 31.64 -4 34.28 -4 37 C-3.34 37 -2.68 37 -2 37 C-2 46.57 -2 56.14 -2 66 C-4.475 66.495 -4.475 66.495 -7 67 C-8.35329613 64.29340775 -8.14211439 62.15943245 -8.16113281 59.12915039 C-8.17074036 57.89769791 -8.1803479 56.66624542 -8.19024658 55.3974762 C-8.19509384 54.04753809 -8.19937285 52.69759784 -8.203125 51.34765625 C-8.20887615 49.96764625 -8.21463388 48.58763629 -8.22039795 47.20762634 C-8.23090643 44.31329984 -8.23675029 41.4190011 -8.24023438 38.5246582 C-8.24572317 34.81433119 -8.26975956 31.10437041 -8.29820633 27.39415836 C-8.31682018 24.54344099 -8.32203759 21.69281213 -8.32357025 18.84203911 C-8.32659946 17.47407463 -8.3346371 16.1061118 -8.34775543 14.73820686 C-8.36479001 12.82562629 -8.36109462 10.91289492 -8.35644531 9.00024414 C-8.36009094 7.91151505 -8.36373657 6.82278595 -8.36749268 5.70106506 C-8 3 -8 3 -6.64569092 1.13670349 C-4.38575388 -0.42426904 -2.68101371 -0.21737949 0 0 Z " fill="#82E6BE" transform="translate(152,247)"/>
<path d="M0 0 C0.12648678 23.02448545 -0.10135877 45.9914385 -1 69 C-2.65 68.67 -4.3 68.34 -6 68 C-6 45.89 -6 23.78 -6 1 C-3 0 -3 0 0 0 Z " fill="#83EABC" transform="translate(219,231)"/>
<path d="M0 0 C0.074557 4.71391399 0.12879273 9.42747929 0.16479492 14.1418457 C0.17981466 15.74314356 0.20023663 17.34440075 0.22631836 18.94555664 C0.26300438 21.25677571 0.27979435 23.56744756 0.29296875 25.87890625 C0.30845261 26.58648575 0.32393646 27.29406525 0.33988953 28.02308655 C0.3420288 34.44465593 -1.21571948 38.88703622 -5.375 43.8125 C-10.02079815 47.68399846 -13.96990346 48.43487661 -19.90625 48.3359375 C-22 48 -22 48 -24.5625 46 C-25.036875 45.34 -25.51125 44.68 -26 44 C-25.33613281 43.89042969 -24.67226562 43.78085937 -23.98828125 43.66796875 C-15.4717538 42.20671458 -15.4717538 42.20671458 -9.25 36.5625 C-7.07839432 32.11070836 -6.83529924 28.20688957 -6.68359375 23.265625 C-6.64169922 21.97011719 -6.59980469 20.67460937 -6.55664062 19.33984375 C-6.51683329 17.97656524 -6.47712094 16.61328394 -6.4375 15.25 C-6.39427726 13.87108125 -6.35066179 12.49217474 -6.30664062 11.11328125 C-6.20056042 7.7422881 -6.0985015 4.37122174 -6 1 C-4 0 -4 0 0 0 Z " fill="#86EABE" transform="translate(168,278)"/>
<path d="M0 0 C3.94745638 1.28025612 5.8915097 2.40137838 8 6 C8.38818359 8.92919922 8.38818359 8.92919922 8.3984375 12.3046875 C8.40423828 14.13966797 8.40423828 14.13966797 8.41015625 16.01171875 C8.39855469 17.28660156 8.38695312 18.56148438 8.375 19.875 C8.38660156 21.14214844 8.39820313 22.40929687 8.41015625 23.71484375 C8.40628906 24.94074219 8.40242188 26.16664063 8.3984375 27.4296875 C8.39505371 28.54585449 8.39166992 29.66202148 8.38818359 30.81201172 C7.86778494 35.08582657 6.41746428 38.4815459 3.46484375 41.64453125 C-0.84904734 44.94338915 -3.02990668 46.17605342 -8.4375 46.3125 C-9.40558594 46.34988281 -10.37367188 46.38726562 -11.37109375 46.42578125 C-14 46 -14 46 -15.84765625 43.98046875 C-16.22792969 43.32691406 -16.60820312 42.67335938 -17 42 C-16.33613281 41.87882812 -15.67226563 41.75765625 -14.98828125 41.6328125 C-8.23759804 40.55189923 -8.23759804 40.55189923 -2 38 C-0.67518454 35.60470331 -0.67518454 35.60470331 0 33 C0.33 32.01 0.66 31.02 1 30 C1.09501685 27.88578554 1.13072699 25.76869123 1.1328125 23.65234375 C1.13410156 22.40775391 1.13539063 21.16316406 1.13671875 19.88085938 C1.13091797 17.92889648 1.13091797 17.92889648 1.125 15.9375 C1.12886719 14.63232422 1.13273437 13.32714844 1.13671875 11.98242188 C1.13542969 10.73912109 1.13414062 9.49582031 1.1328125 8.21484375 C1.13168457 7.07136475 1.13055664 5.92788574 1.12939453 4.74975586 C1.18766387 2.03809693 1.18766387 2.03809693 0 0 Z " fill="#83E8BD" transform="translate(328,246)"/>
<path d="M0 0 C0 1.65 0 3.3 0 5 C-0.99 5 -1.98 5 -3 5 C-3 17.21 -3 29.42 -3 42 C-7.455 42.495 -7.455 42.495 -12 43 C-12 41.35 -12 39.7 -12 38 C-11.01 38 -10.02 38 -9 38 C-9 25.79 -9 13.58 -9 1 C-5.68756695 0.17189174 -3.34023421 -0.09278428 0 0 Z " fill="#82E9BC" transform="translate(357,243)"/>
<path d="M0 0 C1.65 0 3.3 0 5 0 C4.67 2.64 4.34 5.28 4 8 C-0.71258572 9.27798935 -4.04265048 10 -9 10 C-9 17.92 -9 25.84 -9 34 C-10.98 34 -12.96 34 -15 34 C-15 24.76 -15 15.52 -15 6 C-4 4 -4 4 0 4 C0 2.68 0 1.36 0 0 Z " fill="#85E9BE" transform="translate(300,214)"/>
<path d="M0 0 C0 1.32 0 2.64 0 4 C-0.66 4 -1.32 4 -2 4 C-1.99476318 5.05501709 -1.98952637 6.11003418 -1.98413086 7.19702148 C-1.96608099 11.0975663 -1.95456805 14.9981074 -1.94506836 18.89868164 C-1.9400281 20.58944316 -1.93319595 22.28020029 -1.92456055 23.97094727 C-1.91248143 26.39600707 -1.90676877 28.82100944 -1.90234375 31.24609375 C-1.89718246 32.00651474 -1.89202118 32.76693573 -1.88670349 33.55039978 C-1.88650762 35.3673257 -1.93802723 37.18413127 -2 39 C-2.495 39.495 -2.495 39.495 -3 40 C-4.65 40 -6.3 40 -8 40 C-8 27.13 -8 14.26 -8 1 C-5.29120665 -0.35439668 -2.99066732 -0.06501451 0 0 Z " fill="#86EABE" transform="translate(257,227)"/>
<path d="M0 0 C1.98 0 3.96 0 6 0 C6 10.23 6 20.46 6 31 C3.69 31.33 1.38 31.66 -1 32 C-1.02465504 27.60343827 -1.04283842 23.2069128 -1.05493164 18.81030273 C-1.05997121 17.31355082 -1.06680287 15.81680384 -1.07543945 14.32006836 C-1.08752159 12.17300193 -1.09323191 10.02600038 -1.09765625 7.87890625 C-1.10289307 6.5854126 -1.10812988 5.29191895 -1.11352539 3.95922852 C-1 1 -1 1 0 0 Z " fill="#8DE6C4" transform="translate(349,204)"/>
<path d="M0 0 C1.65 0 3.3 0 5 0 C5 2.64 5 5.28 5 8 C1.37 8.66 -2.26 9.32 -6 10 C-6 17.59 -6 25.18 -6 33 C-8.475 33.495 -8.475 33.495 -11 34 C-11 24.76 -11 15.52 -11 6 C-7.7 5.34 -4.4 4.68 -1 4 C-0.67 2.68 -0.34 1.36 0 0 Z " fill="#82E9BC" transform="translate(296,251)"/>
<path d="M0 0 C2.05078125 0.03255208 4.1015625 0.06510417 6.15234375 0.09765625 C6.15234375 1.41765625 6.15234375 2.73765625 6.15234375 4.09765625 C5.16234375 4.59265625 5.16234375 4.59265625 4.15234375 5.09765625 C3.82234375 13.34765625 3.49234375 21.59765625 3.15234375 30.09765625 C0.18234375 30.42765625 -2.78765625 30.75765625 -5.84765625 31.09765625 C-5.84765625 29.44765625 -5.84765625 27.79765625 -5.84765625 26.09765625 C-4.85765625 26.09765625 -3.86765625 26.09765625 -2.84765625 26.09765625 C-2.85289307 25.34556885 -2.85812988 24.59348145 -2.86352539 23.81860352 C-2.88422852 20.43246283 -2.89729502 17.04633541 -2.91015625 13.66015625 C-2.91853516 12.47615234 -2.92691406 11.29214844 -2.93554688 10.07226562 C-2.93876953 8.94755859 -2.94199219 7.82285156 -2.9453125 6.6640625 C-2.95054932 5.62193604 -2.95578613 4.57980957 -2.96118164 3.50610352 C-2.80289976 0.14814481 -2.80289976 0.14814481 0 0 Z " fill="#82E7BD" transform="translate(250.84765625,274.90234375)"/>
<path d="M0 0 C0 1.65 0 3.3 0 5 C-0.66 5 -1.32 5 -2 5 C-2.33 13.25 -2.66 21.5 -3 30 C-5.97 30.33 -8.94 30.66 -12 31 C-12 29.35 -12 27.7 -12 26 C-11.01 26 -10.02 26 -9 26 C-9.01160156 25.35675781 -9.02320313 24.71351563 -9.03515625 24.05078125 C-9.10901995 16.65385931 -8.65578395 9.36585905 -8 2 C-5.09399739 0.74335022 -3.20395416 0 0 0 Z " fill="#84E7BE" transform="translate(186,289)"/>
<path d="M0 0 C2.17240606 3.25860909 2.23564158 3.82050803 1.8125 7.5 C1.73644531 8.2734375 1.66039062 9.046875 1.58203125 9.84375 C0.89158772 12.40163474 0.11471972 13.4253161 -2 15 C-2.99 15 -3.98 15 -5 15 C-4.71125 14.505 -4.4225 14.01 -4.125 13.5 C-2.58711584 10.08247965 -1.85152195 6.6493798 -1 3 C-5.99035105 4.24758776 -8.209581 5.67003948 -11 10 C-14.520835 16.16146125 -14.55313189 21.99011699 -14 29 C-13.67 29.66 -13.34 30.32 -13 31 C-10.47266765 31.65555119 -10.47266765 31.65555119 -8 32 C-8 32.99 -8 33.98 -8 35 C-10.75 35.3125 -10.75 35.3125 -14 35 C-16.75788584 32.32658994 -17.89274711 30.60579392 -18.56640625 26.80078125 C-18.55621583 17.70073578 -17.36279286 11.05272289 -11.3203125 4.0546875 C-7.77374207 0.66574243 -5.07654798 -1.0625333 0 0 Z " fill="#145561" transform="translate(206,184)"/>
<path d="M0 0 C5 2 5 2 7 5 C7.22705078 7.36010742 7.22705078 7.36010742 7.1953125 10.10546875 C7.18564453 11.57983398 7.18564453 11.57983398 7.17578125 13.08398438 C7.15902344 14.10814453 7.14226562 15.13230469 7.125 16.1875 C7.11597656 17.22326172 7.10695312 18.25902344 7.09765625 19.32617188 C7.0740786 21.88434685 7.0411703 24.44205748 7 27 C4.03 27.66 1.06 28.32 -2 29 C-2 27.02 -2 25.04 -2 23 C-1.01 23 -0.02 23 1 23 C0.67 15.41 0.34 7.82 0 0 Z " fill="#83E9BD" transform="translate(161,243)"/>
<path d="M0 0 C1.1446875 0.3403125 1.1446875 0.3403125 2.3125 0.6875 C2.15910156 1.46351563 2.00570313 2.23953125 1.84765625 3.0390625 C1.16259286 7.70949468 0.95503523 12.35005085 0.75 17.0625 C0.70681641 17.98933594 0.66363281 18.91617188 0.61914062 19.87109375 C0.51373814 22.14310294 0.41161394 24.41520925 0.3125 26.6875 C-2.55474686 26.11405063 -3.5489515 25.8260485 -5.6875 23.6875 C-6.13841675 20.22806667 -6.01156422 16.73545566 -6 13.25 C-6.01611328 12.28255859 -6.03222656 11.31511719 -6.04882812 10.31835938 C-6.04947266 9.38958984 -6.05011719 8.46082031 -6.05078125 7.50390625 C-6.05376221 6.65256104 -6.05674316 5.80121582 -6.05981445 4.92407227 C-5.41894231 1.07421671 -3.89242124 -0.45260712 0 0 Z " fill="#82E9BC" transform="translate(318.6875,213.3125)"/>
<path d="M0 0 C5.26902465 2.63451233 5.26902465 2.63451233 7 6 C7.35698225 9.09334516 7.28220914 12.14159759 7.1875 15.25 C7.17396484 16.09046875 7.16042969 16.9309375 7.14648438 17.796875 C7.11123464 19.86485938 7.0574302 21.93251271 7 24 C2.05 24.495 2.05 24.495 -3 25 C-2.67 23.35 -2.34 21.7 -2 20 C-1.01 20 -0.02 20 1 20 C0.67 13.4 0.34 6.8 0 0 Z " fill="#8AEBC0" transform="translate(330,209)"/>
<path d="M0 0 C0 2.64 0 5.28 0 8 C-4.08418609 9.80994759 -8.19653307 10.78357471 -12.5625 11.625 C-13.5515332 11.82609375 -13.5515332 11.82609375 -14.56054688 12.03125 C-17.80348637 12.67006019 -20.67611493 13 -24 13 C-24 11.35 -24 9.7 -24 8 C-21.93918639 7.49309416 -19.87626474 6.99475381 -17.8125 6.5 C-16.66394531 6.2215625 -15.51539063 5.943125 -14.33203125 5.65625 C-11.43181171 5.08504615 -8.93903615 4.86716221 -6 5 C-6 3.68 -6 2.36 -6 1 C-3 0 -3 0 0 0 Z " fill="#87EABF" transform="translate(305,286)"/>
<path d="M0 0 C-0.24257285 6.18560757 -0.24257285 6.18560757 -2.40234375 8.5078125 C-3.91550151 9.69697648 -5.45645613 10.85055244 -7 12 C-7 12.66 -7 13.32 -7 14 C-5.68 14.33 -4.36 14.66 -3 15 C-3.33 15.66 -3.66 16.32 -4 17 C-6.66666667 17 -9.33333333 17 -12 17 C-13.299375 17.0309375 -13.299375 17.0309375 -14.625 17.0625 C-17 17 -17 17 -18 16 C-18.04063832 14.33382885 -18.042721 12.66611905 -18 11 C-17.34 10.67 -16.68 10.34 -16 10 C-15.34 11.32 -14.68 12.64 -14 14 C-13.40251953 12.86111328 -13.40251953 12.86111328 -12.79296875 11.69921875 C-11.99826172 10.20841797 -11.99826172 10.20841797 -11.1875 8.6875 C-10.40439453 7.20830078 -10.40439453 7.20830078 -9.60546875 5.69921875 C-6.86080189 1.08470585 -5.48396059 -0.44464545 0 0 Z " fill="#0E515D" transform="translate(268,186)"/>
<path d="M0 0 C0.33 0 0.66 0 1 0 C1 5.28 1 10.56 1 16 C2.98 15.67 4.96 15.34 7 15 C7.12375 15.78375 7.2475 16.5675 7.375 17.375 C7.79117993 20.14057822 7.79117993 20.14057822 10 22 C6.04 22.66 2.08 23.32 -2 24 C-2.05375085 20.37480411 -2.09355293 16.7503981 -2.125 13.125 C-2.14175781 12.09246094 -2.15851563 11.05992187 -2.17578125 9.99609375 C-2.18222656 9.00996094 -2.18867188 8.02382813 -2.1953125 7.0078125 C-2.20578613 6.09660645 -2.21625977 5.18540039 -2.22705078 4.24658203 C-2 2 -2 2 0 0 Z " fill="#EFF8F8" transform="translate(152,252)"/>
<path d="M0 0 C0.33 0 0.66 0 1 0 C2.42033442 11.07099954 3.2964981 21.83190472 3 33 C0.525 33.495 0.525 33.495 -2 34 C-2.43291385 22.59993525 -1.13702941 11.32795794 0 0 Z " fill="#83E4BF" transform="translate(182,248)"/>
<path d="M0 0 C0 1.65 0 3.3 0 5 C-0.99 5.33 -1.98 5.66 -3 6 C-2.67 4.35 -2.34 2.7 -2 1 C-6.09709868 4.81360102 -6.09709868 4.81360102 -7.0625 10.125 C-7.041875 11.07375 -7.02125 12.0225 -7 13 C-5.35 13 -3.7 13 -2 13 C-2.66 14.32 -3.32 15.64 -4 17 C-4.7425 16.835 -5.485 16.67 -6.25 16.5 C-11.32899124 15.57654705 -13.79194601 16.19463067 -18 19 C-17.61056711 16.27396979 -17.1632636 15.15740815 -15.1484375 13.21484375 C-12.75904149 10.75159368 -11.43048643 8.36239356 -9.875 5.3125 C-7.04626388 -0.22039061 -6.19661753 -1.46761994 0 0 Z " fill="#135561" transform="translate(282,184)"/>
<path d="M0 0 C1.65 0 3.3 0 5 0 C5 5.28 5 10.56 5 16 C0 15 0 15 -1 14 C-1.0989294 11.83519203 -1.129711 9.66706215 -1.125 7.5 C-1.12757813 6.3140625 -1.13015625 5.128125 -1.1328125 3.90625 C-1 1 -1 1 0 0 Z " fill="#84E5BF" transform="translate(313,264)"/>
<path d="M0 0 C0.99 0 1.98 0 3 0 C3.08694042 4.10403363 3.14037149 8.20783129 3.1875 12.3125 C3.22520508 14.06336914 3.22520508 14.06336914 3.26367188 15.84960938 C3.27333984 16.96787109 3.28300781 18.08613281 3.29296875 19.23828125 C3.3086792 20.26993408 3.32438965 21.30158691 3.34057617 22.36450195 C3 25 3 25 0 28 C0 18.76 0 9.52 0 0 Z " fill="#F0EFFD" transform="translate(150,284)"/>
<path d="M0 0 C0.33 0 0.66 0 1 0 C1 2.31 1 4.62 1 7 C1.66 7 2.32 7 3 7 C3.08703823 10.43734063 3.14040272 13.87439837 3.1875 17.3125 C3.21263672 18.28896484 3.23777344 19.26542969 3.26367188 20.27148438 C3.27333984 21.20927734 3.28300781 22.14707031 3.29296875 23.11328125 C3.3086792 23.97735596 3.32438965 24.84143066 3.34057617 25.73168945 C3 28 3 28 0 31 C0 20.77 0 10.54 0 0 Z " fill="#E5F5F3" transform="translate(218,268)"/>
<path d="M0 0 C1.8125 0.8125 1.8125 0.8125 2.8125 1.8125 C2.85330783 3.81208364 2.85504356 5.81295254 2.8125 7.8125 C0.8125 4.8125 0.8125 4.8125 0.8125 2.8125 C0.1525 2.8125 -0.5075 2.8125 -1.1875 2.8125 C-1.8475 4.1325 -2.5075 5.4525 -3.1875 6.8125 C-3.8475 6.4825 -4.5075 6.1525 -5.1875 5.8125 C-5.5175 6.8025 -5.8475 7.7925 -6.1875 8.8125 C-6.8475 8.4825 -7.5075 8.1525 -8.1875 7.8125 C-6.59978834 4.10783945 -4.51529747 -0.3870255 0 0 Z " fill="#11535F" transform="translate(218.1875,195.1875)"/>
<path d="M0 0 C0.66 0 1.32 0 2 0 C2.33 1.65 2.66 3.3 3 5 C1.35 6.32 -0.3 7.64 -2 9 C-2.6875 6.75 -2.6875 6.75 -3 4 C-1.6875 1.6875 -1.6875 1.6875 0 0 Z " fill="#5C8991" transform="translate(264,188)"/>
<path d="M0 0 C1.65 1.65 3.3 3.3 5 5 C4.01 6.32 3.02 7.64 2 9 C1.01 8.67 0.02 8.34 -1 8 C-1.125 2.25 -1.125 2.25 0 0 Z " fill="#F0F4F5" transform="translate(213,202)"/>
<path d="M0 0 C0.33 0 0.66 0 1 0 C1.33 3.63 1.66 7.26 2 11 C1.34 11 0.68 11 0 11 C0 12.65 0 14.3 0 16 C-0.33 16 -0.66 16 -1 16 C-0.67 10.72 -0.34 5.44 0 0 Z " fill="#8CD8CA" transform="translate(182,248)"/>
<path d="M0 0 C0.66 0 1.32 0 2 0 C1.45276317 3.37462715 0.9451 5.08235 -1 8 C-1.99 8.33 -2.98 8.66 -4 9 C-2.94124926 5.59687262 -1.99097846 2.98646769 0 0 Z " fill="#326B75" transform="translate(297,184)"/>
<path d="M0 0 C1.2380014 3.57644848 0.74926071 6.33694766 0 10 C-1.5625 8.875 -1.5625 8.875 -3 7 C-2.8125 3.875 -2.8125 3.875 -2 1 C-1.34 0.67 -0.68 0.34 0 0 Z " fill="#25616C" transform="translate(253,190)"/>
<path d="M0 0 C0.99 0.33 1.98 0.66 3 1 C3 2.65 3 4.3 3 6 C2.01 6.33 1.02 6.66 0 7 C0.33 5.35 0.66 3.7 1 2 C0.34 1.67 -0.32 1.34 -1 1 C-0.67 0.67 -0.34 0.34 0 0 Z " fill="#0A4E5A" transform="translate(279,183)"/>
</svg>
