<?xml version="1.0" standalone="no"?>
<!DOCTYPE svg PUBLIC "-//W3C//DTD SVG 20010904//EN"
 "http://www.w3.org/TR/2001/REC-SVG-20010904/DTD/svg10.dtd">
<svg version="1.0" xmlns="http://www.w3.org/2000/svg"
 width="320.000000pt" height="320.000000pt" viewBox="0 0 320.000000 320.000000"
 preserveAspectRatio="xMidYMid meet">

<g transform="translate(0.000000,320.000000) scale(0.100000,-0.100000)"
fill="#000000" stroke="none">
<path d="M0 1600 l0 -1600 1600 0 1600 0 0 1600 0 1600 -1600 0 -1600 0 0
-1600z m1560 726 c262 -48 434 -199 506 -446 28 -98 26 -374 -4 -483 -67 -243
-224 -401 -467 -471 -62 -18 -106 -20 -402 -24 l-333 -3 0 720 0 721 313 0
c218 -1 335 -5 387 -14z m941 -987 c138 -47 202 -211 133 -340 -117 -216 -444
-134 -445 110 0 32 6 73 14 92 47 114 183 176 298 138z"/>
<path d="M1258 2025 c-5 -5 -8 -188 -8 -408 l0 -399 103 4 c87 3 111 7 159 31
103 51 154 142 167 300 14 177 -13 304 -79 380 -55 62 -117 86 -238 94 -53 3
-100 2 -104 -2z"/>
</g>
</svg>
